<svg enable-background="new 0 0 100 100" height="100" viewBox="0 0 100 100" width="100" xmlns="http://www.w3.org/2000/svg"><path fill="#841617" d="m50 38.294 5.866-5.866c-3.239-3.232-8.5-3.232-11.732 0z"/><path fill="#841617" d="m59.401 28.89 3.535-3.535c-7.136-7.129-18.741-7.129-25.87 0l3.535 3.535c5.184-5.176 13.618-5.176 18.8 0z"/><path fill="#841617" d="m33.532 21.82c9.076-9.076 23.858-9.076 32.94 0l3.535-3.535c-11.049-11.042-28.962-11.049-40.01-.004z"/><circle fill="#841617" cx="50" cy="68.333" r="3.333"/><path fill="#841617" d="m80 40v-3.333h-6.667v3.333h-10v3.333l10 2.5v10.833h-6.666c0-3.678-2.985-6.666-6.667-6.666h-20c-3.678 0-6.667 2.985-6.667 6.667h-6.667v-10.834l10-2.5v-3.333h-10v-3.333h-6.666v3.333h-10v3.333l10 2.5v44.167h6.667v-26.667h6.667v6.667c0 7.356 5.963 13.333 13.333 13.333l6.667.004c7.357 0 13.334-5.964 13.334-13.334v-6.67h6.666v26.667h6.666v-44.167l10-2.5v-3.333zm-20 30.003c0 3.676-2.991 6.667-6.667 6.667l-6.663-.003c-3.682 0-6.67-2.992-6.67-6.667v-13.333h6.667v5h6.667v-5h6.666z"/></svg>